HIERARCHY
ROOT Hips
{
	OFFSET 0.000000 0.000000 0.000000
	CHANNELS 6 Xposition Yposition Zposition Zrotation Yrotation Xrotation 
	JOINT LowerBack
	{
		OFFSET 0.000000 0.000000 0.000000
		CHANNELS 3 Zrotation Yrotation Xrotation
		JOINT Spine
		{
			OFFSET 0.028270 2.035590 -0.193380
			CHANNELS 3 Zrotation Yrotation Xrotation
			JOINT Spine1
			{
				OFFSET 0.056720 2.048850 -0.042750
				CHANNELS 3 Zrotation Yrotation Xrotation
				JOINT Neck
				{
					OFFSET 0.000000 0.000000 0.000000
					CHANNELS 3 Zrotation Yrotation Xrotation
					JOINT Neck1
					{
						OFFSET -0.054170 1.746240 0.172020
						CHANNELS 3 Zrotation Yrotation Xrotation
						JOINT Head
						{
							OFFSET 0.104070 1.761360 -0.123970
							CHANNELS 3 Zrotation Yrotation Xrotation
							End Site
							{
								OFFSET 0.000000 0.000000 0.000000
							}
						}
					}
				}
				JOINT LeftShoulder
				{
					OFFSET 0.000000 0.000000 0.000000
					CHANNELS 3 Zrotation Yrotation Xrotation
					JOINT LeftArm
					{
						OFFSET 3.362410 1.200890 -0.311210
						CHANNELS 3 Zrotation Yrotation Xrotation
						JOINT LeftForeArm
						{
							OFFSET 4.983000 -0.000000 -0.000000
							CHANNELS 3 Zrotation Yrotation Xrotation
							JOINT LeftHand
							{
								OFFSET 3.483560 -0.000000 -0.000000
								CHANNELS 3 Zrotation Yrotation Xrotation
								JOINT LeftFingerBase
								{
									OFFSET 0.000000 0.000000 0.000000
									CHANNELS 3 Zrotation Yrotation Xrotation
									JOINT LeftHandIndex1
									{
										OFFSET 0.715260 -0.000000 -0.000000
										CHANNELS 3 Zrotation Yrotation Xrotation
										End Site
										{
											OFFSET 0.000000 0.000000 0.000000
										}
									}
								}
								JOINT LThumb
								{
									OFFSET 0.000000 0.000000 0.000000
									CHANNELS 3 Zrotation Yrotation Xrotation
									End Site
									{
										OFFSET 0.000000 0.000000 0.000000
									}
								}
							}
						}
					}
				}
				JOINT RightShoulder
				{
					OFFSET 0.000000 0.000000 0.000000
					CHANNELS 3 Zrotation Yrotation Xrotation
					JOINT RightArm
					{
						OFFSET -3.136600 1.374050 -0.404650
						CHANNELS 3 Zrotation Yrotation Xrotation
						JOINT RightForeArm
						{
							OFFSET -5.241900 -0.000000 -0.000000
							CHANNELS 3 Zrotation Yrotation Xrotation
							JOINT RightHand
							{
								OFFSET -3.444170 -0.000000 -0.000000
								CHANNELS 3 Zrotation Yrotation Xrotation
								JOINT RightFingerBase
								{
									OFFSET 0.000000 0.000000 0.000000
									CHANNELS 3 Zrotation Yrotation Xrotation
									JOINT RightHandIndex1
									{
										OFFSET -0.622530 -0.000000 -0.000000
										CHANNELS 3 Zrotation Yrotation Xrotation
										End Site
										{
											OFFSET 0.000000 0.000000 0.000000
										}
									}
								}
								JOINT RThumb
								{
									OFFSET 0.000000 0.000000 0.000000
									CHANNELS 3 Zrotation Yrotation Xrotation
									End Site
									{
										OFFSET 0.000000 0.000000 0.000000
									}
								}
							}
						}
					}
				}
			}
		}
	}
}
}
MOTION
Frames: 15
Frame Time: 0.008333
5.182849 17.351719 0.581145 4.284656 -61.640764 3.676686 -4.312204 1.163870 -2.165325 -1.632731 1.466034 -4.308222 -4.475782 1.481235 -5.027054 5.678884 7.367033 3.473367 -1.929004 -0.300086 3.016575 0.000000 0.000000 0.000000 3.878559 -2.293363 -6.298147 -71.722644 -72.103323 0.555050 175.521898 -64.673386 179.508932 27.485793 -17.225424 -4.630007 -0.289206 1.309072 -0.000000 0.000000 0.000000 0.000000 0.000000 0.000000 0.000000 2.979753 10.310501 2.489656 71.447347 28.185172 -1.888217 1.278753 25.095488 0.005370 1.496559 -2.181270 -0.025703 0.003260 -0.187772 -0.000000 0.000000 0.000000 0.000000 0.000000 0.000000 0.000000 
5.187301 17.351590 0.588781 4.199746 -61.922844 3.741883 -4.092278 1.076604 -2.251029 -1.609939 1.359562 -4.310727 -4.592922 1.377900 -4.984882 5.949449 6.790675 3.438956 -2.008111 -0.304059 3.008318 0.000000 0.000000 0.000000 4.138883 -2.355960 -6.270738 -70.757929 -71.781548 -0.425982 175.474428 -64.107150 179.505141 27.820397 -17.338375 -4.720974 -0.304402 1.315719 -0.000000 0.000000 0.000000 0.000000 0.000000 0.000000 0.000000 3.450269 9.607254 2.335422 72.039094 27.616657 -0.464958 1.151299 27.279934 0.004806 1.272783 -2.632160 -0.026895 -0.001426 -0.186161 -0.000000 0.000000 0.000000 0.000000 0.000000 0.000000 0.000000 
5.192004 17.352812 0.597749 4.130402 -62.313952 3.806285 -3.861962 0.985219 -2.360732 -1.574075 1.249144 -4.315678 -4.663006 1.270904 -4.936224 6.144803 6.265188 3.416230 -2.052400 -0.306436 3.004542 0.000000 0.000000 0.000000 4.358587 -2.347398 -6.248885 -69.845719 -71.494861 -1.345805 175.432273 -63.580821 179.503120 28.020748 -17.379541 -4.769437 -0.315770 1.320262 -0.000000 0.000000 0.000000 0.000000 0.000000 0.000000 0.000000 3.688987 8.969993 2.150141 72.557056 27.164893 1.022379 1.003472 29.583143 0.003809 0.893369 -2.950621 -0.021388 -0.005231 -0.187320 -0.000000 0.000000 0.000000 0.000000 0.000000 0.000000 0.000000 
5.196910 17.355082 0.607780 4.077446 -62.807658 3.866693 -3.625411 0.889037 -2.492531 -1.528057 1.134182 -4.323542 -4.695589 1.159543 -4.884321 6.281654 5.793821 3.412210 -2.068130 -0.307618 3.006787 0.000000 0.000000 0.000000 4.540492 -2.267771 -6.230171 -68.991449 -71.250827 -2.195454 175.398800 -63.107836 179.502875 28.080008 -17.349823 -4.773794 -0.323157 1.322835 -0.000000 0.000000 0.000000 0.000000 0.000000 0.000000 0.000000 3.740857 8.398354 1.931301 72.999077 26.832466 2.516982 0.832779 32.010770 0.002204 0.333943 -3.046290 -0.008182 -0.008420 -0.192489 -0.000000 0.000000 0.000000 0.000000 0.000000 0.000000 0.000000 
5.201755 17.358007 0.618618 4.043787 -63.396822 3.918996 -3.386015 0.788209 -2.643192 -1.474952 1.014820 -4.334411 -4.701254 1.043918 -4.831926 6.377172 5.374912 3.431860 -2.062676 -0.308036 3.016019 0.000000 0.000000 0.000000 4.690773 -2.121861 -6.212690 -68.191679 -71.052562 -2.977273 175.376061 -62.694609 179.504286 28.004241 -17.255779 -4.736842 -0.326744 1.323700 -0.000000 0.000000 0.000000 0.000000 0.000000 0.000000 0.000000 3.656103 7.884995 1.678144 73.361834 26.626257 3.961102 0.640573 34.562921 -0.000217 -0.405302 -2.855102 0.009426 -0.011305 -0.202604 -0.000000 0.000000 0.000000 0.000000 0.000000 0.000000 0.000000 
5.206653 17.361212 0.629986 4.028076 -64.072399 3.958768 -3.145699 0.683166 -2.808759 -1.417531 0.891380 -4.348230 -4.690662 0.924374 -4.782063 6.446867 5.005799 3.478684 -2.043511 -0.308118 3.032840 0.000000 0.000000 0.000000 4.817686 -1.919757 -6.194888 -67.435616 -70.895588 -3.703377 175.365290 -62.344316 179.507135 27.809792 -17.109040 -4.665082 -0.326973 1.323213 -0.000000 0.000000 0.000000 0.000000 0.000000 0.000000 0.000000 3.483399 7.421252 1.391743 73.645004 26.552544 5.294664 0.432121 37.235115 -0.003659 -1.291758 -2.350128 0.024135 -0.014297 -0.218135 -0.000000 0.000000 0.000000 0.000000 0.000000 0.000000 0.000000 
5.211442 17.364292 0.641632 4.032611 -64.822979 3.982888 -2.906211 0.574448 -2.985834 -1.358585 0.764246 -4.363618 -4.674375 0.801376 -4.731870 6.503452 4.659705 3.549293 -2.019323 -0.308267 3.056031 0.000000 0.000000 0.000000 4.931927 -1.671101 -6.177964 -66.711659 -70.776430 -4.385451 175.366277 -62.053267 179.511097 27.523555 -16.926678 -4.568611 -0.324584 1.321853 -0.000000 0.000000 0.000000 0.000000 0.000000 0.000000 0.000000 3.273425 6.971983 1.075544 73.851784 26.646965 6.512893 0.218398 39.986423 -0.008334 -2.276195 -1.528038 0.025745 -0.017607 -0.239046 0.000000 0.000000 0.000000 0.000000 0.000000 0.000000 0.000000 
5.216132 17.366939 0.653356 4.057683 -65.635437 3.987759 -2.668109 0.462973 -3.171119 -1.299876 0.634193 -4.380394 -4.659524 0.675803 -4.683142 6.555257 4.335813 3.644267 -1.995584 -0.308777 3.085541 0.000000 0.000000 0.000000 5.044134 -1.393017 -6.161487 -66.001672 -70.679515 -5.046437 175.377403 -61.810963 179.515817 27.174553 -16.727246 -4.457930 -0.320380 1.320127 -0.000000 0.000000 0.000000 0.000000 0.000000 0.000000 0.000000 3.059005 6.532480 0.735381 73.994488 26.905087 7.568015 0.010049 42.803432 -0.014152 -3.259560 -0.461689 0.005953 -0.021935 -0.264391 -0.000000 0.000000 0.000000 0.000000 0.000000 0.000000 0.000000 
5.220740 17.368901 0.664995 4.101670 -66.495717 3.972255 -2.431953 0.349494 -3.361675 -1.242771 0.501875 -4.397283 -4.651317 0.548438 -4.632913 6.605759 4.015327 3.758420 -1.977556 -0.309850 3.119841 0.000000 0.000000 0.000000 5.164057 -1.100590 -6.146938 -65.292267 -70.590703 -5.702756 175.396634 -61.607473 179.520892 26.795509 -16.531393 -4.344541 -0.315248 1.318555 -0.000000 0.000000 0.000000 0.000000 0.000000 0.000000 0.000000 2.867356 6.080899 0.378853 74.087773 27.341582 8.467451 -0.181025 45.644890 -0.020782 -4.140729 0.748505 -0.037043 -0.027813 -0.292677 -0.000000 0.000000 0.000000 0.000000 0.000000 0.000000 0.000000 
5.225232 17.370003 0.676382 4.164256 -67.389273 3.934981 -2.198195 0.234858 -3.555157 -1.187956 0.368128 -4.413219 -4.651863 0.420250 -4.578403 6.654611 3.684749 3.886444 -1.968497 -0.311588 3.157445 0.000000 0.000000 0.000000 5.299409 -0.808833 -6.135659 -64.571717 -70.495130 -6.369332 175.420992 -61.427375 179.525938 26.416897 -16.357888 -4.238345 -0.310047 1.317609 -0.000000 0.000000 0.000000 0.000000 0.000000 0.000000 0.000000 2.713570 5.603548 0.014202 74.148706 27.957781 9.226749 -0.346153 48.474069 -0.027587 -4.824022 1.972597 -0.095643 -0.035767 -0.322043 -0.000000 0.000000 0.000000 0.000000 0.000000 0.000000 0.000000 
5.229564 17.370241 0.687461 4.244501 -68.302267 3.876358 -1.967613 0.119496 -3.749655 -1.135556 0.233494 -4.427409 -4.660740 0.291874 -4.517575 6.698563 3.335959 4.023423 -1.969751 -0.313992 3.197044 0.000000 0.000000 0.000000 5.455571 -0.530836 -6.128472 -63.834733 -70.377189 -7.054597 175.447917 -61.258242 179.530622 26.063976 -16.222260 -4.147143 -0.305485 1.317663 -0.000000 0.000000 0.000000 0.000000 0.000000 0.000000 0.000000 2.601457 5.094517 -0.351139 74.194435 28.743344 9.869620 -0.480882 51.259608 -0.033800 -5.245223 3.086040 -0.155750 -0.046124 -0.350736 -0.000000 0.000000 0.000000 0.000000 0.000000 0.000000 0.000000 
5.233684 17.369649 0.698193 4.339488 -69.221483 3.798130 -1.740675 0.003788 -3.943448 -1.085327 0.098479 -4.438895 -4.676351 0.163861 -4.447644 6.733164 2.957522 4.163293 -1.981534 -0.316987 3.237054 0.000000 0.000000 0.000000 5.630657 -0.275415 -6.125985 -63.079878 -70.230670 -7.758531 175.475612 -61.095485 179.534664 25.759167 -16.133528 -4.076238 -0.302161 1.318869 -0.000000 0.000000 0.000000 0.000000 0.000000 0.000000 0.000000 2.528244 4.545243 -0.711288 74.238489 29.688136 10.438842 -0.584313 53.968752 -0.038817 -5.394259 3.999161 -0.203763 -0.058724 -0.377433 -0.000000 0.000000 0.000000 0.000000 0.000000 0.000000 0.000000 
5.237474 17.368349 0.708465 4.450359 -70.139702 3.700090 -1.519308 -0.113874 -4.135821 -1.037013 -0.038190 -4.449045 -4.696527 0.034907 -4.374449 6.758504 2.576492 4.309806 -2.002063 -0.320524 3.278528 0.000000 0.000000 0.000000 5.840107 -0.048597 -6.127219 -62.316795 -70.027933 -8.483763 175.501877 -60.919070 179.538020 25.501159 -16.099562 -4.026829 -0.300146 1.321559 -0.000000 0.000000 0.000000 0.000000 0.000000 0.000000 0.000000 2.485479 3.985957 -1.064638 74.295553 30.739759 10.912385 -0.660117 56.614307 -0.042292 -5.286774 4.687034 -0.231586 -0.073729 -0.401771 -0.000000 0.000000 0.000000 0.000000 0.000000 0.000000 0.000000 
5.240899 17.366583 0.718329 4.571601 -71.046768 3.587627 -1.303646 -0.233071 -4.325897 -0.990147 -0.176032 -4.456809 -4.719473 -0.094593 -4.294238 6.770689 2.177417 4.456128 -2.030137 -0.324433 3.319689 0.000000 0.000000 0.000000 6.067810 0.150904 -6.132250 -61.555075 -69.783513 -9.210293 175.526789 -60.739845 179.540552 25.304930 -16.114302 -3.999418 -0.299773 1.325417 -0.000000 0.000000 0.000000 0.000000 0.000000 0.000000 0.000000 2.463285 3.402961 -1.409054 74.370160 31.892400 11.348585 -0.710398 59.168906 -0.044349 -5.007025 5.157914 -0.239715 -0.090055 -0.423613 -0.000000 0.000000 0.000000 0.000000 0.000000 0.000000 0.000000 
5.243843 17.364526 0.727782 4.701876 -71.938990 3.463005 -1.094672 -0.354847 -4.513366 -0.944448 -0.315931 -4.463390 -4.743999 -0.225657 -4.211925 6.771955 1.782790 4.605423 -2.063364 -0.328614 3.361419 0.000000 0.000000 0.000000 6.314720 0.325600 -6.139402 -60.810152 -69.492272 -9.925955 175.550282 -60.555741 179.542368 25.162333 -16.170939 -3.990806 -0.300845 1.330308 -0.000000 0.000000 0.000000 0.000000 0.000000 0.000000 0.000000 2.452044 2.820372 -1.745884 74.466595 33.101870 11.731038 -0.738966 61.651055 -0.045388 -4.633128 5.468625 -0.233754 -0.107132 -0.443641 -0.000000 0.000000 0.000000 0.000000 0.000000 0.000000 0.000000 
